# xmcd
#
# Track frame offsets:
# 150
# 23173
# 49763
# 68697
# 100706
# 135264
# 162294
# 192034
# 221281
# 245551
# 272886
#
# Disc length: 3964 seconds
#
#
# Revision: 0
# Processed by: cddbd v1.5.2PL0 Copyright (c) Steve Scherf et al.
# Submitted via: FreeRIP 2.96 
#
DISCID=8e0f7a0b
DTITLE=Ken Follett - Der dritte Zwilling CD2v4
DYEAR=1998
DGENRE=Speech
TTITLE0=13 Der dritte Zwilling
TTITLE1=14 Der dritte Zwilling
TTITLE2=15 Der dritte Zwilling
TTITLE3=16 Der dritte Zwilling
TTITLE4=17 Der dritte Zwilling
TTITLE5=18 Der dritte Zwilling
TTITLE6=19 Der dritte Zwilling
TTITLE7=20 Der dritte Zwilling
TTITLE8=21 Der dritte Zwilling
TTITLE9=22 Der dritte Zwilling
TTITLE10=23 Der dritte Zwilling
EXTD=gelesen von Mareike Carriére und Jörg Schüttauf
EXTT0=
EXTT1=
EXTT2=
EXTT3=
EXTT4=
EXTT5=
EXTT6=
EXTT7=
EXTT8=
EXTT9=
EXTT10=
PLAYORDER=
